<svg width="114" height="194" viewBox="0 0 114 194" fill="none" xmlns="http://www.w3.org/2000/svg">
<path d="M33.25 21.5002C33.25 26.7634 31.8811 31.4932 29.7074 34.8841C27.5285 38.2832 24.609 40.2502 21.5 40.2502C18.391 40.2502 15.4715 38.2832 13.2926 34.8841C11.1189 31.4932 9.75 26.7634 9.75 21.5002C9.75 16.2371 11.1189 11.5073 13.2926 8.11641C15.4715 4.71729 18.391 2.75024 21.5 2.75024C24.609 2.75024 27.5285 4.71729 29.7074 8.11641C31.8811 11.5073 33.25 16.2371 33.25 21.5002Z" stroke="black" stroke-width="1.5"/>
<path d="M55.25 19.5002C55.25 23.1007 54.2757 26.3265 52.7399 28.6302C51.2006 30.9391 49.1565 32.2502 47 32.2502C44.8435 32.2502 42.7994 30.9391 41.2601 28.6302C39.7243 26.3265 38.75 23.1007 38.75 19.5002C38.75 15.8997 39.7243 12.674 41.2601 10.3703C42.7994 8.0614 44.8435 6.75024 47 6.75024C49.1565 6.75024 51.2006 8.0614 52.7399 10.3703C54.2757 12.674 55.25 15.8997 55.25 19.5002Z" stroke="black" stroke-width="1.5"/>
<path d="M74.25 22.5002C74.25 25.8306 73.3846 28.8106 72.0252 30.9348C70.6603 33.0674 68.8658 34.2502 67 34.2502C65.1342 34.2502 63.3397 33.0674 61.9748 30.9348C60.6154 28.8106 59.75 25.8306 59.75 22.5002C59.75 19.1699 60.6154 16.1899 61.9748 14.0657C63.3397 11.9331 65.1342 10.7502 67 10.7502C68.8658 10.7502 70.6603 11.9331 72.0252 14.0657C73.3846 16.1899 74.25 19.1699 74.25 22.5002Z" stroke="black" stroke-width="1.5"/>
<path d="M90.25 29.5002C90.25 32.2723 89.4996 34.748 88.3257 36.5088C87.1484 38.2749 85.6042 39.2502 84 39.2502C82.3958 39.2502 80.8516 38.2749 79.6743 36.5088C78.5004 34.748 77.75 32.2723 77.75 29.5002C77.75 26.7282 78.5004 24.2524 79.6743 22.4916C80.8516 20.7256 82.3958 19.7502 84 19.7502C85.6042 19.7502 87.1484 20.7256 88.3257 22.4916C89.4996 24.2524 90.25 26.7282 90.25 29.5002Z" stroke="black" stroke-width="1.5"/>
<path d="M104.25 42.0002C104.25 44.638 103.554 46.9914 102.467 48.6626C101.376 50.3409 99.9572 51.2502 98.5 51.2502C97.0428 51.2502 95.6235 50.3409 94.5326 48.6626C93.4464 46.9914 92.75 44.638 92.75 42.0002C92.75 39.3625 93.4464 37.0091 94.5326 35.3379C95.6235 33.6596 97.0428 32.7502 98.5 32.7502C99.9572 32.7502 101.376 33.6596 102.467 35.3379C103.554 37.0091 104.25 39.3625 104.25 42.0002Z" stroke="black" stroke-width="1.5"/>
<path d="M59 191.5C94 195 100.048 113.538 100.5 103C102 68.0003 101.5 55.0003 71.5 42C47.3757 33.3159 15 39.4162 15 70.0003C15 87.5006 41.2405 103.615 39.5 124.5C38.7916 133.001 34 141.5 32 149C28.6665 161.5 31 188.7 59 191.5Z" stroke="black" stroke-width="1.5"/>
<path d="M0 1H114" stroke="#FF5C9D" stroke-width="2" stroke-dasharray="4 4"/>
<path d="M0 193H114" stroke="#FF5C9D" stroke-width="2" stroke-dasharray="4 4"/>
<path d="M20.3201 0.744262C19.6264 0.291352 18.6969 0.486518 18.244 1.18018L10.8634 12.484C10.4105 13.1777 10.6057 14.1072 11.2993 14.5601C11.993 15.013 12.9225 14.8178 13.3754 14.1241L19.9359 4.07629L29.9838 10.6368C30.6774 11.0897 31.6069 10.8946 32.0598 10.2009C32.5127 9.50725 32.3176 8.57777 31.6239 8.12486L20.3201 0.744262ZM58.6799 193.756C59.3736 194.209 60.3031 194.014 60.756 193.32L68.1366 182.016C68.5895 181.323 68.3943 180.393 67.7007 179.94C67.007 179.488 66.0775 179.683 65.6246 180.376L59.0641 190.424L49.0162 183.864C48.3226 183.411 47.3931 183.606 46.9402 184.3C46.4873 184.993 46.6824 185.923 47.3761 186.376L58.6799 193.756ZM18.032 2.30848L58.032 192.808L60.968 192.192L20.968 1.69201L18.032 2.30848Z" fill="#FF5C9D"/>
</svg>
