<svg width="24" height="24" viewBox="0 0 24 24" fill="none" xmlns="http://www.w3.org/2000/svg">
<g clip-path="url(#clip0_797_6126)">
<path fill-rule="evenodd" clip-rule="evenodd" d="M13.2665 2.45034C12.8975 1.19784 11.1245 1.19784 10.7555 2.45034L10.6145 2.92884C10.4959 3.33075 10.2889 3.70106 10.0087 4.01262C9.72843 4.32418 9.38206 4.56911 8.9949 4.72946C8.60775 4.88981 8.18963 4.96153 7.77117 4.93936C7.35271 4.9172 6.94451 4.8017 6.57647 4.60133L6.13847 4.36134C4.99247 3.73884 3.73847 4.99134 4.36247 6.13884L4.60097 6.57683C4.80133 6.94488 4.91683 7.35308 4.939 7.77154C4.96117 8.19 4.88945 8.60812 4.72909 8.99527C4.56874 9.38242 4.32381 9.7288 4.01225 10.009C3.70069 10.2893 3.33039 10.4963 2.92847 10.6148L2.44997 10.7558C1.19747 11.1248 1.19747 12.8978 2.44997 13.2668L2.92847 13.4078C3.3306 13.5264 3.7011 13.7334 4.01282 14.0137C4.32454 14.2941 4.56956 14.6406 4.72994 15.028C4.89031 15.4153 4.96197 15.8336 4.93965 16.2523C4.91734 16.6709 4.80161 17.0792 4.60097 17.4473L4.36097 17.8838C3.73847 19.0298 4.99097 20.2838 6.13847 19.6598L6.57647 19.4213C6.94461 19.221 7.35291 19.1056 7.77145 19.0835C8.18999 19.0614 8.60817 19.1333 8.99535 19.2938C9.38252 19.4543 9.72887 19.6994 10.009 20.0111C10.2892 20.3228 10.4961 20.6933 10.6145 21.0953L10.7555 21.5723C11.1245 22.8248 12.8975 22.8248 13.2665 21.5723L13.4075 21.0938C13.526 20.6917 13.733 20.3212 14.0134 20.0095C14.2937 19.6978 14.6402 19.4527 15.0276 19.2924C15.4149 19.132 15.8333 19.0603 16.2519 19.0827C16.6705 19.105 17.0789 19.2207 17.447 19.4213L17.8835 19.6613C19.0295 20.2838 20.2835 19.0313 19.6595 17.8838L19.421 17.4473C19.2203 17.0791 19.1047 16.6707 19.0825 16.252C19.0602 15.8333 19.132 15.4149 19.2925 15.0275C19.4531 14.6401 19.6983 14.2936 20.0102 14.0134C20.322 13.7331 20.6927 13.5262 21.095 13.4078L21.572 13.2668C22.8245 12.8978 22.8245 11.1248 21.572 10.7558L21.0935 10.6148C20.6916 10.4963 20.3213 10.2893 20.0097 10.009C19.6981 9.7288 19.4532 9.38242 19.2928 8.99527C19.1325 8.60812 19.0608 8.19 19.0829 7.77154C19.1051 7.35308 19.2206 6.94488 19.421 6.57683L19.661 6.13884C20.2835 4.99284 19.031 3.73883 17.8835 4.36284L17.447 4.60133C17.0788 4.80226 16.6703 4.91821 16.2515 4.94068C15.8327 4.96314 15.4142 4.89155 15.0266 4.73115C14.6391 4.57076 14.2924 4.32563 14.0119 4.01375C13.7315 3.70188 13.5244 3.33117 13.406 2.92884L13.265 2.45034H13.2665ZM9.31697 2.02584C10.1075 -0.659165 13.9145 -0.659165 14.705 2.02584L14.846 2.50433C14.9012 2.69176 14.9976 2.86446 15.1282 3.00977C15.2589 3.15508 15.4203 3.26932 15.6009 3.34411C15.7814 3.41891 15.9763 3.45236 16.1714 3.44201C16.3666 3.43167 16.5569 3.37779 16.7285 3.28434L17.1665 3.04434C19.6265 1.70634 22.3175 4.39584 20.9765 6.85584L20.738 7.29384C20.6445 7.46542 20.5906 7.65575 20.5803 7.85087C20.57 8.04598 20.6034 8.24094 20.6782 8.42145C20.753 8.60196 20.8672 8.76344 21.0125 8.89406C21.1578 9.02468 21.3305 9.12113 21.518 9.17634L21.9965 9.31734C24.6815 10.1078 24.6815 13.9148 21.9965 14.7053L21.518 14.8463C21.3305 14.9015 21.1578 14.998 21.0125 15.1286C20.8672 15.2592 20.753 15.4207 20.6782 15.6012C20.6034 15.7817 20.57 15.9767 20.5803 16.1718C20.5906 16.3669 20.6445 16.5572 20.738 16.7288L20.978 17.1668C22.3175 19.6268 19.625 22.3178 17.1665 20.9768L16.7285 20.7383C16.5569 20.6449 16.3666 20.591 16.1714 20.5807C15.9763 20.5703 15.7814 20.6038 15.6009 20.6786C15.4203 20.7534 15.2589 20.8676 15.1282 21.0129C14.9976 21.1582 14.9012 21.3309 14.846 21.5183L14.705 21.9968C13.9145 24.6818 10.1075 24.6818 9.31697 21.9968L9.17597 21.5183C9.12076 21.3309 9.02432 21.1582 8.89369 21.0129C8.76307 20.8676 8.60159 20.7534 8.42108 20.6786C8.24057 20.6038 8.04562 20.5703 7.8505 20.5807C7.65539 20.591 7.46506 20.6449 7.29347 20.7383L6.85547 20.9783C4.39547 22.3178 1.70597 19.6253 3.04547 17.1668L3.28397 16.7288C3.37743 16.5572 3.4313 16.3669 3.44165 16.1718C3.45199 15.9767 3.41854 15.7817 3.34375 15.6012C3.26895 15.4207 3.15472 15.2592 3.00941 15.1286C2.8641 14.998 2.6914 14.9015 2.50397 14.8463L2.02547 14.7053C-0.659531 13.9148 -0.659531 10.1078 2.02547 9.31734L2.50397 9.17634C2.6914 9.12113 2.8641 9.02468 3.00941 8.89406C3.15472 8.76344 3.26895 8.60196 3.34375 8.42145C3.41854 8.24094 3.45199 8.04598 3.44165 7.85087C3.4313 7.65575 3.37743 7.46542 3.28397 7.29384L3.04397 6.85584C1.70597 4.39584 4.39697 1.70634 6.85547 3.04584L7.29347 3.28434C7.46506 3.37779 7.65539 3.43167 7.8505 3.44201C8.04562 3.45236 8.24057 3.41891 8.42108 3.34411C8.60159 3.26932 8.76307 3.15508 8.89369 3.00977C9.02432 2.86446 9.12076 2.69176 9.17597 2.50433L9.31697 2.02584V2.02584Z" fill="#F8F9FA"/>
<path fill-rule="evenodd" clip-rule="evenodd" d="M11.9999 8.63086C11.1063 8.63086 10.2494 8.98581 9.61762 9.61762C8.98581 10.2494 8.63086 11.1063 8.63086 11.9999C8.63086 12.8934 8.98581 13.7503 9.61762 14.3821C10.2494 15.0139 11.1063 15.3689 11.9999 15.3689C12.8934 15.3689 13.7503 15.0139 14.3821 14.3821C15.0139 13.7503 15.3689 12.8934 15.3689 11.9999C15.3689 11.1063 15.0139 10.2494 14.3821 9.61762C13.7503 8.98581 12.8934 8.63086 11.9999 8.63086V8.63086ZM7.13086 11.9999C7.13086 11.3605 7.2568 10.7273 7.50149 10.1366C7.74618 9.54584 8.10483 9.00909 8.55696 8.55696C9.00908 8.10483 9.54584 7.74618 10.1366 7.50149C10.7273 7.2568 11.3605 7.13086 11.9999 7.13086C12.6393 7.13086 13.2724 7.2568 13.8631 7.50149C14.4539 7.74618 14.9906 8.10483 15.4428 8.55696C15.8949 9.00909 16.2535 9.54584 16.4982 10.1366C16.7429 10.7273 16.8689 11.3605 16.8689 11.9999C16.8689 13.2912 16.3559 14.5296 15.4428 15.4428C14.5296 16.3559 13.2912 16.8689 11.9999 16.8689C10.7085 16.8689 9.47007 16.3559 8.55696 15.4428C7.64384 14.5296 7.13086 13.2912 7.13086 11.9999V11.9999Z" fill="#F8F9FA"/>
</g>
<defs>
<clipPath id="clip0_797_6126">
<rect width="24" height="24" fill="white"/>
</clipPath>
</defs>
</svg>
