<svg width="419" height="153" viewBox="0 0 419 153" fill="none" xmlns="http://www.w3.org/2000/svg">
<path d="M10.0489 59.8968L10.0614 59.9114L10.075 59.925C10.48 60.33 11.0274 60.5 11.6429 60.5H15.2143C15.8297 60.5 16.3772 60.33 16.7821 59.925C17.2103 59.4968 17.4286 58.9644 17.4286 58.3571V39.9065L37.0036 59.1393C37.0042 59.1399 37.0048 59.1405 37.0054 59.1411C37.2188 59.3542 37.5479 59.631 37.9787 59.9661L37.9932 59.9773L38.0084 59.9875C38.5537 60.351 39.2866 60.5 40.1429 60.5H44.1429C44.6651 60.5 45.1232 60.2982 45.4964 59.925C45.8696 59.5518 46.0714 59.0937 46.0714 58.5714C46.0714 58.0766 45.9133 57.6293 45.5984 57.2513L45.5844 57.2345L45.5689 57.219L22.4244 33.9337L44.1352 12.7147L44.1571 12.6934L44.1761 12.6695C44.4538 12.3225 44.5714 11.8941 44.5714 11.4286C44.5714 10.9063 44.3696 10.4482 43.9964 10.075C43.6232 9.70185 43.1651 9.5 42.6429 9.5H38.7857C37.9656 9.5 37.2489 9.65325 36.6713 9.99983L36.6611 10.0059L36.6512 10.0125C36.2177 10.3015 35.8765 10.5602 35.6503 10.7854L17.4286 28.2565V11.7143C17.4286 11.0889 17.2283 10.5429 16.7829 10.1457C16.3857 9.70023 15.8397 9.5 15.2143 9.5H11.6429C11.0107 9.5 10.4597 9.70458 10.0614 10.1602C9.66625 10.5637 9.5 11.1058 9.5 11.7143V58.3571C9.5 58.9418 9.67874 59.4649 10.0489 59.8968Z" fill="#F8F9FA" stroke="#F8F9FA"/>
<path d="M114.478 59.8968L114.49 59.9114L114.504 59.925C114.909 60.33 115.456 60.5 116.071 60.5H119.857C120.473 60.5 121.02 60.33 121.425 59.925L121.439 59.9114L121.451 59.8968C121.821 59.4649 122 58.9418 122 58.3571V11.6429C122 11.0662 121.825 10.5544 121.439 10.1601C121.04 9.70455 120.489 9.5 119.857 9.5H116.071C115.439 9.5 114.888 9.70455 114.49 10.1601C114.103 10.5544 113.929 11.0662 113.929 11.6429V58.3571C113.929 58.9418 114.107 59.4649 114.478 59.8968Z" fill="#F8F9FA" stroke="#F8F9FA"/>
<path d="M188.406 59.8968L188.419 59.9114L188.432 59.925C188.837 60.33 189.385 60.5 190 60.5H206.571C211.422 60.5 215.361 59.8048 218.358 58.3802L218.361 58.3787C221.412 56.9024 223.64 54.6781 225.024 51.713C226.443 48.7262 227.189 45.0092 227.286 40.5828C227.333 38.4848 227.357 36.6237 227.357 35C227.357 33.377 227.333 31.4931 227.286 29.3488C227.237 25.1092 226.514 21.5096 225.094 18.5696C223.662 15.5595 221.388 13.2892 218.292 11.7657C215.199 10.2436 211.163 9.5 206.214 9.5H190C189.368 9.5 188.817 9.70458 188.419 10.1602C188.023 10.5638 187.857 11.1058 187.857 11.7143V58.3571C187.857 58.9418 188.036 59.4649 188.406 59.8968ZM217.83 48.0082L217.83 48.0082L217.826 48.0173C217.017 49.9053 215.7 51.2655 213.861 52.1178C212 52.9802 209.462 53.4286 206.214 53.4286H195.857V16.5714H205.857C210.754 16.5714 214.107 17.6807 216.064 19.7703L216.064 19.7703L216.067 19.7742C218.04 21.8368 219.12 25.0957 219.214 29.6532L219.215 29.6652L219.216 29.6773C219.31 31.0496 219.357 32.2759 219.357 33.3571V33.3633V33.3694V33.3756V33.3817V33.3878V33.394V33.4001V33.4063V33.4124V33.4186V33.4247V33.4308V33.437V33.4431V33.4493V33.4554V33.4616V33.4677V33.4739V33.48V33.4862V33.4923V33.4985V33.5046V33.5108V33.5169V33.5231V33.5292V33.5354V33.5415V33.5477V33.5539V33.56V33.5662V33.5723V33.5785V33.5846V33.5908V33.597V33.6031V33.6093V33.6154V33.6216V33.6278V33.6339V33.6401V33.6462V33.6524V33.6586V33.6647V33.6709V33.6771V33.6832V33.6894V33.6956V33.7017V33.7079V33.7141V33.7203V33.7264V33.7326V33.7388V33.7449V33.7511V33.7573V33.7635V33.7696V33.7758V33.782V33.7882V33.7943V33.8005V33.8067V33.8129V33.8191V33.8252V33.8314V33.8376V33.8438V33.85V33.8561V33.8623V33.8685V33.8747V33.8809V33.8871V33.8932V33.8994V33.9056V33.9118V33.918V33.9242V33.9304V33.9366V33.9428V33.9489V33.9551V33.9613V33.9675V33.9737V33.9799V33.9861V33.9923V33.9985V34.0047V34.0109V34.0171V34.0233V34.0295V34.0357V34.0419V34.0481V34.0543V34.0605V34.0667V34.0729V34.0791V34.0853V34.0915V34.0977V34.1039V34.1101V34.1163V34.1225V34.1287V34.1349V34.1411V34.1473V34.1535V34.1597V34.166V34.1722V34.1784V34.1846V34.1908V34.197V34.2032V34.2094V34.2156V34.2219V34.2281V34.2343V34.2405V34.2467V34.2529V34.2592V34.2654V34.2716V34.2778V34.284V34.2903V34.2965V34.3027V34.3089V34.3151V34.3214V34.3276V34.3338V34.34V34.3463V34.3525V34.3587V34.3649V34.3712V34.3774V34.3836V34.3899V34.3961V34.4023V34.4085V34.4148V34.421V34.4272V34.4335V34.4397V34.4459V34.4522V34.4584V34.4646V34.4709V34.4771V34.4834V34.4896V34.4958V34.5021V34.5083V34.5146V34.5208V34.527V34.5333V34.5395V34.5458V34.552V34.5582V34.5645V34.5707V34.577V34.5832V34.5895V34.5957V34.602V34.6082V34.6145V34.6207V34.627V34.6332V34.6395V34.6457V34.652V34.6582V34.6645V34.6707V34.677V34.6832V34.6895V34.6958V34.702V34.7083V34.7145V34.7208V34.727V34.7333V34.7396V34.7458V34.7521V34.7583V34.7646V34.7709V34.7771V34.7834V34.7897V34.7959V34.8022V34.8084V34.8147V34.821V34.8272V34.8335V34.8398V34.8461V34.8523V34.8586V34.8649V34.8711V34.8774V34.8837V34.89V34.8962V34.9025V34.9088V34.915V34.9213V34.9276V34.9339V34.9402V34.9464V34.9527V34.959V34.9653V34.9715V34.9778V34.9841V34.9904V34.9967V35.003V35.0092V35.0155V35.0218V35.0281V35.0344V35.0407V35.0469V35.0532V35.0595V35.0658V35.0721V35.0784V35.0847V35.091V35.0973V35.1035V35.1098V35.1161V35.1224V35.1287V35.135V35.1413V35.1476V35.1539V35.1602V35.1665V35.1728V35.1791V35.1854V35.1917V35.198V35.2043V35.2106V35.2169V35.2232V35.2295V35.2358V35.2421V35.2484V35.2547V35.261V35.2673V35.2736V35.2799V35.2862V35.2925V35.2988V35.3052V35.3115V35.3178V35.3241V35.3304V35.3367V35.343V35.3493V35.3556V35.362V35.3683V35.3746V35.3809V35.3872V35.3935V35.3999V35.4062V35.4125V35.4188V35.4251V35.4314V35.4378V35.4441V35.4504V35.4567V35.4631V35.4694V35.4757V35.482V35.4883V35.4947V35.501V35.5073V35.5137V35.52V35.5263V35.5326V35.539V35.5453V35.5516V35.558V35.5643V35.5706V35.5769V35.5833V35.5896V35.5959V35.6023V35.6086V35.615V35.6213V35.6276V35.634V35.6403V35.6466V35.653V35.6593V35.6657V35.672V35.6783V35.6847V35.691V35.6974V35.7037V35.71V35.7164V35.7227V35.7291V35.7354V35.7418V35.7481V35.7545V35.7608V35.7672V35.7735V35.7799V35.7862V35.7926V35.7989V35.8053V35.8116V35.818V35.8243V35.8307V35.837V35.8434V35.8497V35.8561V35.8625V35.8688V35.8752V35.8815V35.8879V35.8942V35.9006V35.907V35.9133V35.9197V35.9261V35.9324V35.9388V35.9451V35.9515V35.9579V35.9642V35.9706V35.977V35.9833V35.9897V35.9961V36.0024V36.0088V36.0152V36.0216V36.0279V36.0343V36.0407V36.047V36.0534V36.0598V36.0662V36.0725V36.0789V36.0853V36.0917V36.098V36.1044V36.1108V36.1172V36.1235V36.1299V36.1363V36.1427V36.1491V36.1555V36.1618V36.1682V36.1746V36.181V36.1874V36.1938V36.2001V36.2065V36.2129V36.2193V36.2257V36.2321V36.2385V36.2449V36.2512V36.2576V36.264V36.2704V36.2768V36.2832V36.2896V36.296V36.3024V36.3088V36.3152V36.3216V36.328V36.3344V36.3408V36.3472V36.3536V36.36V36.3664V36.3728V36.3792V36.3856V36.392V36.3984V36.4048V36.4112V36.4176V36.424V36.4304V36.4368V36.4432V36.4496V36.456V36.4624V36.4688V36.4752V36.4816V36.4881V36.4945V36.5009V36.5073V36.5137V36.5201V36.5265V36.5329V36.5394V36.5458V36.5522V36.5586V36.565V36.5714C219.357 37.6048 219.31 38.8313 219.215 40.2525L219.215 40.2654L219.214 40.2785C219.167 43.5265 218.696 46.0939 217.83 48.0082Z" fill="#F8F9FA" stroke="#F8F9FA"/>
<path d="M294.263 59.8968L294.288 59.926L294.318 59.9511C294.749 60.3213 295.273 60.5 295.857 60.5H299.571C300.187 60.5 300.734 60.33 301.139 59.925C301.567 59.4968 301.786 58.9644 301.786 58.3571V16.8571H314.929C315.544 16.8571 316.091 16.6871 316.496 16.2821C316.925 15.854 317.143 15.3216 317.143 14.7143V11.7143C317.143 11.0889 316.943 10.5429 316.497 10.1457C316.1 9.70023 315.554 9.5 314.929 9.5H280.5C279.893 9.5 279.36 9.71828 278.932 10.1464C278.527 10.5514 278.357 11.0989 278.357 11.7143V14.7143C278.357 15.2989 278.536 15.8221 278.906 16.254L278.931 16.2832L278.96 16.3082C279.392 16.6784 279.915 16.8571 280.5 16.8571H293.714V58.3571C293.714 58.9418 293.893 59.4649 294.263 59.8968Z" fill="#F8F9FA" stroke="#F8F9FA"/>
<path d="M384.574 59.926L384.549 59.8968C384.179 59.4649 384 58.9418 384 58.3571V41.6366L366.855 12.6114L366.828 12.5657L366.811 12.5153L366.669 12.0867C366.6 11.8814 366.571 11.6592 366.571 11.4286C366.571 10.9064 366.773 10.4482 367.146 10.075C367.52 9.70184 367.978 9.5 368.5 9.5H372.214C372.733 9.5 373.21 9.64394 373.627 9.93581C374.043 10.1798 374.342 10.5398 374.522 10.9936L388 33.3875L401.5 10.9565L401.505 10.9492L401.505 10.9493C401.768 10.5285 402.073 10.1854 402.43 9.94562C402.851 9.64717 403.332 9.5 403.857 9.5H407.5C408.052 9.5 408.539 9.6894 408.925 10.075M384.574 59.926L408.571 10.4286M384.574 59.926L384.603 59.9511M384.574 59.926L384.603 59.9511M408.925 10.075L408.571 10.4286M408.925 10.075C408.925 10.075 408.925 10.075 408.925 10.075L408.571 10.4286M408.925 10.075C409.298 10.4482 409.5 10.9063 409.5 11.4286C409.5 11.6593 409.471 11.8814 409.403 12.0867L408.929 11.9286C408.976 11.7857 409 11.619 409 11.4286C409 11.0476 408.857 10.7143 408.571 10.4286M384.603 59.9511C385.035 60.3213 385.558 60.5 386.143 60.5L384.603 59.9511ZM409.139 12.6222L409.145 12.6107L408.714 12.3571L409.13 12.6345C409.133 12.6304 409.136 12.6263 409.139 12.6222ZM391.571 41.5L392.002 41.7535L392.071 41.6362V41.5H391.571Z" fill="#F8F9FA" stroke="#F8F9FA"/>
<rect x="18" y="103" width="20" height="50" fill="#EE71D4"/>
<circle cx="118" cy="128" r="25" fill="#7ECAF7"/>
<path d="M183 103H213C224.046 103 233 111.954 233 123V133C233 144.046 224.046 153 213 153H183V103Z" fill="#EE71D4"/>
<rect x="273" y="103" width="50" height="19" fill="#6874D7"/>
<rect width="50" height="50" transform="translate(363 103)" fill="#65CBFB"/>
</svg>
