<svg width="122" height="53" viewBox="0 0 122 53" fill="none" xmlns="http://www.w3.org/2000/svg">
<path d="M120.194 52.3644H113.226V36.4517H120.194V52.3644Z" fill="#EE71D4"/>
<path d="M92.0669 19.0729H98.0331V26.7969H107.204V31.7345H98.0331V42.1473C98.0331 44.2005 98.3618 45.6671 99.0192 46.5471C99.6767 47.427 100.794 47.867 102.372 47.867C103.457 47.867 104.41 47.7529 105.232 47.5248C106.087 47.2967 106.761 47.0848 107.254 46.8893L108.24 51.5824C107.549 51.8757 106.645 52.169 105.528 52.4623C104.41 52.7882 103.095 52.9512 101.583 52.9512C99.7424 52.9512 98.1974 52.7068 96.9483 52.2179C95.7321 51.729 94.7623 51.0283 94.0392 50.1158C93.316 49.1706 92.8065 48.0463 92.5106 46.7426C92.2148 45.4064 92.0669 43.8909 92.0669 42.1962L92.0669 19.0729Z" fill="#50C3F9"/>
<path d="M61.6031 34.7196C61.6031 38.2521 62.4493 41.0339 64.1417 43.065C65.834 45.052 68.1721 46.0455 71.1561 46.0455C72.4476 46.0455 73.5387 46.0014 74.4294 45.913C75.3647 45.7806 76.1218 45.6481 76.7008 45.5156V25.6457C75.9882 25.16 75.0307 24.7184 73.8282 24.321C72.6703 23.8794 71.4233 23.6587 70.0872 23.6587C67.1478 23.6587 64.9878 24.6522 63.6072 26.6392C62.2711 28.6262 61.6031 31.3196 61.6031 34.7196ZM84.784 51.0792C83.1807 51.565 81.1544 52.0065 78.7049 52.4039C76.2999 52.8013 73.7614 53 71.0892 53C68.328 53 65.8563 52.5805 63.674 51.7416C61.4918 50.9026 59.6213 49.7104 58.0625 48.165C56.5483 46.5754 55.3681 44.6767 54.5219 42.4689C53.7203 40.217 53.3194 37.7001 53.3194 34.9183C53.3194 32.1807 53.6535 29.708 54.3215 27.5002C55.0341 25.2483 56.0584 23.3275 57.3945 21.7379C58.7305 20.1483 60.3561 18.934 62.2711 18.0951C64.1862 17.212 66.3907 16.7704 68.8847 16.7704C70.5771 16.7704 72.069 16.9691 73.3606 17.3665C74.6521 17.7639 75.7655 18.2055 76.7008 18.6912V0.741943H84.784V51.0792Z" fill="#454EB7"/>
<path d="M45.2904 52.1389H36.5807L36.5807 17.2903H45.2904V52.1389Z" fill="#454EB7"/>
<path d="M8.70968 30.3548C9.734 29.2951 10.1987 28.8249 11.3566 27.6327C12.5146 26.3963 13.6502 25.182 14.7636 23.9898C15.877 22.7535 16.9236 21.5834 17.9034 20.4795C18.9277 19.3314 19.7962 18.3379 20.5088 17.499H30.0617C27.8349 19.9717 25.4745 22.5327 22.9805 25.182C20.531 27.8314 18.0593 30.4145 15.5653 32.9313C16.9014 34.0352 18.3042 35.382 19.7739 36.9716C21.2436 38.517 22.6688 40.1728 24.0494 41.939C25.43 43.7053 26.7215 45.4715 27.924 47.2377C29.1265 49.0039 30.1285 50.6377 30.9302 52.139H21.5776C20.776 50.7702 19.8407 49.3351 18.7719 47.8338C17.7475 46.3325 16.6341 44.8754 15.4317 43.4624C14.2292 42.0494 13.0045 40.7248 11.7575 39.4884C10.5105 38.2079 9.91215 37.3347 8.70968 36.4516V52.139H0V0.741943H8.70968V30.3548Z" fill="#454EB7"/>
<path d="M8.70966 4.22583L-2.19345e-05 4.22583L-2.16299e-05 0.741958L8.70966 0.741959L8.70966 4.22583Z" fill="#EE71D4"/>
<circle cx="40.9355" cy="9.45163" r="6.09677" fill="#454EB7"/>
<circle cx="116.71" cy="29.4839" r="5.22581" fill="#EE71D4"/>
<rect x="36.5807" y="16.4193" width="8.70968" height="3.48387" fill="#EE71D4"/>
<rect x="36.5807" y="19.9032" width="8.70968" height="6.96774" fill="#50C3F9"/>
</svg>
