<svg width="16" height="16" viewBox="0 0 16 16" fill="none" xmlns="http://www.w3.org/2000/svg">
<path fill-rule="evenodd" clip-rule="evenodd" d="M15.3511 15.3513C14.9929 15.7096 14.412 15.7096 14.0538 15.3514L0.648474 1.94595C0.290237 1.58771 0.290237 1.00689 0.648474 0.648649V0.648649C1.00671 0.29041 1.58753 0.29041 1.94576 0.648648L15.3511 14.0541C15.7093 14.4123 15.7093 14.9931 15.3511 15.3513V15.3513Z" fill="#232633"/>
<path fill-rule="evenodd" clip-rule="evenodd" d="M15.3511 15.3513C14.9929 15.7096 14.412 15.7096 14.0538 15.3514L0.648474 1.94595C0.290237 1.58771 0.290237 1.00689 0.648474 0.648649V0.648649C1.00671 0.29041 1.58753 0.29041 1.94576 0.648648L15.3511 14.0541C15.7093 14.4123 15.7093 14.9931 15.3511 15.3513V15.3513Z" fill="#232633"/>
<path fill-rule="evenodd" clip-rule="evenodd" d="M0.648725 15.3512C0.290489 14.9929 0.290488 14.4121 0.648725 14.0539L14.0541 0.648471C14.4123 0.290232 14.9931 0.290232 15.3514 0.648471V0.648471C15.7096 1.00671 15.7096 1.58753 15.3514 1.94577L1.94602 15.3512C1.58778 15.7094 1.00696 15.7094 0.648725 15.3512V15.3512Z" fill="#232633"/>
<path fill-rule="evenodd" clip-rule="evenodd" d="M0.648725 15.3512C0.290489 14.9929 0.290488 14.4121 0.648725 14.0539L14.0541 0.648471C14.4123 0.290232 14.9931 0.290232 15.3514 0.648471V0.648471C15.7096 1.00671 15.7096 1.58753 15.3514 1.94577L1.94602 15.3512C1.58778 15.7094 1.00696 15.7094 0.648725 15.3512V15.3512Z" fill="#232633"/>
</svg>
