<svg width="400" height="300" viewBox="0 0 400 300" fill="none" xmlns="http://www.w3.org/2000/svg">
<g clip-path="url(#clip0_798_5055)">
<path d="M0 44C0 19.6995 19.6995 0 44 0H98C99.1046 0 100 0.89543 100 2V98C100 99.1046 99.1046 100 98 100H44C19.6995 100 0 80.3005 0 56V44Z" fill="#5E31D5"/>
<rect x="150" width="70.0081" height="70.0081" transform="rotate(45 150 0)" fill="#6C34E4"/>
<rect x="200" width="100" height="100" rx="50" fill="#74C0F5"/>
<path d="M300 0H350C377.614 0 400 22.3858 400 50V100H300V0Z" fill="#914AED"/>
<rect x="5" y="105" width="90" height="90" stroke="#C88CF8" stroke-width="10"/>
<path d="M200 200L102 200C100.895 200 100 199.105 100 198L100 145C100 120.147 120.147 100 145 100L155 100C179.853 100 200 120.147 200 145L200 200Z" fill="#6E33EB"/>
<path d="M291.8 195H208.517L249.112 112.136L291.8 195Z" stroke="#C88CF8" stroke-width="10"/>
<path d="M300 100H400V150C400 177.614 377.614 200 350 200H300V100Z" fill="#914AED"/>
<path d="M0 231C0 213.879 13.8792 200 31 200H69C86.1208 200 100 213.879 100 231V300H31C13.8792 300 0 286.121 0 269V231Z" fill="#F1A857"/>
<rect x="150" y="200" width="70.0081" height="70.0081" transform="rotate(45 150 200)" fill="#914AED"/>
<path d="M200 200H250C277.614 200 300 222.386 300 250V300H200V200Z" fill="#EC699C"/>
<rect x="305" y="205" width="90" height="90" rx="45" stroke="#74C0F5" stroke-width="10"/>
</g>
<defs>
<clipPath id="clip0_798_5055">
<rect width="400" height="300" fill="white"/>
</clipPath>
</defs>
</svg>
