<svg width="419" height="153" viewBox="0 0 419 153" fill="none" xmlns="http://www.w3.org/2000/svg">
<path d="M11.6429 60C11.119 60 10.7143 59.8572 10.4286 59.5714C10.1429 59.2381 10 58.8333 10 58.3571V11.7143C10 11.1905 10.1429 10.7857 10.4286 10.5C10.7143 10.1667 11.119 10 11.6429 10H15.2143C15.7381 10 16.1429 10.1667 16.4286 10.5C16.7619 10.7857 16.9286 11.1905 16.9286 11.7143V29.4286L36 11.1429C36.1905 10.9524 36.5 10.7143 36.9286 10.4286C37.4048 10.1429 38.0238 10 38.7857 10H42.6429C43.0238 10 43.3571 10.1429 43.6429 10.4286C43.9286 10.7143 44.0714 11.0476 44.0714 11.4286C44.0714 11.8095 43.9762 12.119 43.7857 12.3571L21.7143 33.9286L45.2143 57.5714C45.4524 57.8571 45.5714 58.1905 45.5714 58.5714C45.5714 58.9524 45.4286 59.2857 45.1429 59.5714C44.8571 59.8572 44.5238 60 44.1429 60H40.1429C39.3333 60 38.7143 59.8572 38.2857 59.5714C37.8571 59.2381 37.5476 58.9762 37.3571 58.7857L16.9286 38.7143V58.3571C16.9286 58.8333 16.7619 59.2381 16.4286 59.5714C16.1429 59.8572 15.7381 60 15.2143 60H11.6429Z" fill="black"/>
<path d="M116.071 60C115.548 60 115.143 59.8572 114.857 59.5714C114.571 59.2381 114.429 58.8333 114.429 58.3571V11.6429C114.429 11.1667 114.571 10.7857 114.857 10.5C115.143 10.1667 115.548 10 116.071 10H119.857C120.381 10 120.786 10.1667 121.071 10.5C121.357 10.7857 121.5 11.1667 121.5 11.6429V58.3571C121.5 58.8333 121.357 59.2381 121.071 59.5714C120.786 59.8572 120.381 60 119.857 60H116.071Z" fill="black"/>
<path d="M190 60C189.476 60 189.071 59.8572 188.786 59.5714C188.5 59.2381 188.357 58.8333 188.357 58.3571V11.7143C188.357 11.1905 188.5 10.7857 188.786 10.5C189.071 10.1667 189.476 10 190 10H206.214C211.119 10 215.071 10.7381 218.071 12.2143C221.071 13.6905 223.262 15.881 224.643 18.7857C226.024 21.6429 226.738 25.1667 226.786 29.3571C226.833 31.5 226.857 33.381 226.857 35C226.857 36.619 226.833 38.4762 226.786 40.5714C226.691 44.9524 225.952 48.5952 224.571 51.5C223.238 54.3571 221.095 56.5 218.143 57.9286C215.238 59.3095 211.381 60 206.571 60H190ZM195.357 53.9286H206.214C209.5 53.9286 212.119 53.4762 214.071 52.5714C216.024 51.6667 217.429 50.2143 218.286 48.2143C219.191 46.2143 219.667 43.5714 219.714 40.2857C219.81 38.8571 219.857 37.6191 219.857 36.5714C219.857 35.4762 219.857 34.4048 219.857 33.3571C219.857 32.2619 219.81 31.0238 219.714 29.6429C219.619 25.0238 218.524 21.619 216.429 19.4286C214.333 17.1905 210.81 16.0714 205.857 16.0714H195.357V53.9286Z" fill="black"/>
<path d="M295.857 60C295.381 60 294.976 59.8572 294.643 59.5714C294.357 59.2381 294.214 58.8333 294.214 58.3571V16.3571H280.5C280.024 16.3571 279.619 16.2143 279.286 15.9286C279 15.5952 278.857 15.1905 278.857 14.7143V11.7143C278.857 11.1905 279 10.7857 279.286 10.5C279.619 10.1667 280.024 10 280.5 10H314.929C315.452 10 315.857 10.1667 316.143 10.5C316.476 10.7857 316.643 11.1905 316.643 11.7143V14.7143C316.643 15.1905 316.476 15.5952 316.143 15.9286C315.857 16.2143 315.452 16.3571 314.929 16.3571H301.286V58.3571C301.286 58.8333 301.119 59.2381 300.786 59.5714C300.5 59.8572 300.095 60 299.571 60H295.857Z" fill="black"/>
<path d="M386.143 60C385.667 60 385.262 59.8572 384.929 59.5714C384.643 59.2381 384.5 58.8333 384.5 58.3571V41.5L367.286 12.3571C367.238 12.2143 367.191 12.0714 367.143 11.9286C367.095 11.7857 367.071 11.619 367.071 11.4286C367.071 11.0476 367.214 10.7143 367.5 10.4286C367.786 10.1429 368.119 10 368.5 10H372.214C372.643 10 373.024 10.119 373.357 10.3571C373.691 10.5476 373.929 10.8333 374.071 11.2143L388 34.3571L401.929 11.2143C402.167 10.8333 402.429 10.5476 402.714 10.3571C403.048 10.119 403.429 10 403.857 10H407.5C407.929 10 408.286 10.1429 408.571 10.4286C408.857 10.7143 409 11.0476 409 11.4286C409 11.619 408.976 11.7857 408.929 11.9286C408.881 12.0714 408.81 12.2143 408.714 12.3571L391.571 41.5V58.3571C391.571 58.8333 391.405 59.2381 391.071 59.5714C390.786 59.8572 390.381 60 389.857 60H386.143Z" fill="black"/>
<rect x="18" y="103" width="20" height="50" fill="#6874D7"/>
<circle cx="118" cy="128" r="25" fill="#7ECAF7"/>
<path d="M183 103H213C224.046 103 233 111.954 233 123V133C233 144.046 224.046 153 213 153H183V103Z" fill="#EE71D4"/>
<rect x="273" y="103" width="50" height="19" fill="#6874D7"/>
<rect width="50" height="50" transform="translate(363 103)" fill="#404EB6"/>
</svg>
