<svg width="91" height="40" viewBox="0 0 91 40" fill="none" xmlns="http://www.w3.org/2000/svg">
<path d="M89.0323 38.884H83.871V27.0968H89.0323V38.884Z" fill="#FF5C9D"/>
<path d="M68.1977 14.2236H72.6171V19.9452H79.4106V23.6026H72.6171V31.3158C72.6171 32.8367 72.8606 33.9231 73.3476 34.5749C73.8346 35.2267 74.6625 35.5526 75.8312 35.5526C76.6348 35.5526 77.3409 35.4681 77.9496 35.2991C78.5827 35.1301 79.0819 34.9732 79.4471 34.8284L80.1776 38.3047C79.6663 38.522 78.9967 38.7393 78.1688 38.9566C77.3409 39.198 76.3669 39.3187 75.2468 39.3187C73.8833 39.3187 72.7389 39.1376 71.8136 38.7755C70.9127 38.4134 70.1943 37.8943 69.6587 37.2184C69.123 36.5183 68.7456 35.6854 68.5264 34.7197C68.3073 33.7299 68.1977 32.6074 68.1977 31.352L68.1977 14.2236Z" fill="#50C3F9"/>
<path d="M45.6319 25.8138C45.6319 28.4304 46.2587 30.491 47.5123 31.9956C48.7659 33.4674 50.4979 34.2033 52.7082 34.2033C53.6649 34.2033 54.4731 34.1706 55.1329 34.1052C55.8257 34.0071 56.3865 33.909 56.8154 33.8108V19.0923C56.2876 18.7326 55.5783 18.4055 54.6876 18.1111C53.8298 17.784 52.9061 17.6205 51.9164 17.6205C49.7391 17.6205 48.1391 18.3564 47.1165 19.8283C46.1268 21.3001 45.6319 23.2953 45.6319 25.8138ZM62.803 37.932C61.6154 38.2918 60.1143 38.6189 58.2999 38.9133C56.5185 39.2076 54.6381 39.3548 52.6587 39.3548C50.6134 39.3548 48.7824 39.0441 47.1659 38.4226C45.5495 37.8012 44.1639 36.9181 43.0093 35.7733C41.8876 34.5958 41.0134 33.1894 40.3866 31.554C39.7928 29.8859 39.4959 28.0216 39.4959 25.961C39.4959 23.9331 39.7433 22.1015 40.2381 20.4661C40.766 18.798 41.5247 17.3752 42.5144 16.1977C43.5041 15.0202 44.7082 14.1208 46.1268 13.4993C47.5453 12.8452 49.1783 12.5181 51.0257 12.5181C52.2793 12.5181 53.3845 12.6653 54.3412 12.9596C55.2979 13.254 56.1226 13.5811 56.8154 13.9409V0.645142H62.803V37.932Z" fill="#F8F9FA"/>
<path d="M33.5484 38.717H27.0968L27.0968 12.9032H33.5484V38.717Z" fill="#F8F9FA"/>
<path d="M6.45161 22.5806C7.21037 21.7956 7.5546 21.4473 8.41233 20.5642C9.27006 19.6484 10.1113 18.7489 10.936 17.8658C11.7608 16.95 12.536 16.0832 13.2618 15.2655C14.0206 14.4151 14.6638 13.6792 15.1917 13.0578H22.2679C20.6185 14.8894 18.87 16.7864 17.0226 18.7489C15.2082 20.7114 13.3773 22.6248 11.5298 24.4891C12.5195 25.3068 13.5587 26.3044 14.6474 27.4819C15.736 28.6267 16.7917 29.8532 17.8143 31.1615C18.837 32.4698 19.7937 33.7781 20.6844 35.0865C21.5752 36.3948 22.3174 37.605 22.9112 38.717H15.9834C15.3896 37.7031 14.6968 36.6401 13.9051 35.528C13.1463 34.4159 12.3216 33.3366 11.4309 32.2899C10.5402 31.2433 9.63294 30.2621 8.70924 29.3462C7.78553 28.3977 7.34233 27.7509 6.45161 27.0968V38.717H0V0.645142H6.45161V22.5806Z" fill="#F8F9FA"/>
<rect x="6.45166" y="3.22583" width="6.45161" height="2.58065" transform="rotate(-180 6.45166 3.22583)" fill="#FF5C9D"/>
<circle cx="30.3226" cy="7.09682" r="4.51613" fill="#F8F9FA"/>
<circle cx="86.4517" cy="21.9355" r="3.87097" fill="#FF5C9D"/>
<rect x="27.0968" y="12.2581" width="6.45161" height="2.58065" fill="#FF5C9D"/>
<rect x="27.0968" y="14.8387" width="6.45161" height="5.16129" fill="#50C3F9"/>
</svg>
